<svg version="1.1" xmlns="http://www.w3.org/2000/svg" xmlns:xlink="http://www.w3.org/1999/xlink" width="18" height="18"><defs/><g><path fill="rgb(255,255,255)" stroke="none" paint-order="stroke fill markers" fill-rule="evenodd" d=" M 0.9994020462036133 0.9992505311965942 C 0.9994020462036133 0.9992505311965942 0.9994020462036133 13.000013053417206 0.9994020462036133 13.000013053417206 C 0.9994020462036133 13.000013053417206 4.999563932418823 13.000013053417206 4.999563932418823 13.000013053417206 C 4.999563932418823 13.000013053417206 4.999563932418823 17.00002831220627 4.999563932418823 17.00002831220627 C 4.999563932418823 17.00002831220627 10.62389087677002 13.000013053417206 10.62389087677002 13.000013053417206 C 10.62389087677002 13.000013053417206 17.00021243095398 13.000013053417206 17.00021243095398 13.000013053417206 C 17.00021243095398 13.000013053417206 17.00021243095398 0.9992505311965942 17.00021243095398 0.9992505311965942 C 17.00021243095398 0.9992505311965942 0.9994020462036133 0.9992505311965942 0.9994020462036133 0.9992505311965942 Z M 15.000131487846375 10.99986207485199 C 15.000131487846375 10.99986207485199 10.999888181686401 10.99986207485199 10.999888181686401 10.99986207485199 C 10.999888181686401 10.99986207485199 6.999726295471191 13.999730169773102 6.999726295471191 13.999730169773102 C 6.999726295471191 13.999730169773102 6.999726295471191 10.99986207485199 6.999726295471191 10.99986207485199 C 6.999726295471191 10.99986207485199 2.9994829893112183 10.99986207485199 2.9994829893112183 10.99986207485199 C 2.9994829893112183 10.99986207485199 2.9994829893112183 2.9994015097618103 2.9994829893112183 2.9994015097618103 C 2.9994829893112183 2.9994015097618103 15.000131487846375 2.9994015097618103 15.000131487846375 2.9994015097618103 C 15.000131487846375 2.9994015097618103 15.000131487846375 10.99986207485199 15.000131487846375 10.99986207485199 Z"/></g></svg>