<svg version="1.1" xmlns="http://www.w3.org/2000/svg" xmlns:xlink="http://www.w3.org/1999/xlink" width="17" height="17"><defs/><g><path fill="rgb(175,165,163)" stroke="none" paint-order="stroke fill markers" fill-rule="evenodd" d=" M 16.99979341030121 3.3614525198936462 C 16.99979341030121 1.9612178206443787 15.734283208847046 0.694727897644043 14.333778738975525 0.694727897644043 C 14.333778738975525 0.694727897644043 3.666788935661316 0.694727897644043 3.666788935661316 0.694727897644043 C 2.265470266342163 0.694727897644043 0.9998786449432373 1.9612178206443787 0.9998786449432373 3.3614525198936462 C 0.9998786449432373 3.3614525198936462 0.9998786449432373 14.028781056404114 0.9998786449432373 14.028781056404114 C 0.9998786449432373 15.42987585067749 2.265470266342163 16.694645583629608 3.666788935661316 16.694645583629608 C 3.666788935661316 16.694645583629608 8.999876737594604 16.694645583629608 8.999876737594604 16.694645583629608 C 8.999876737594604 16.694645583629608 8.999876737594604 10.651761293411255 8.999876737594604 10.651761293411255 C 8.999876737594604 10.651761293411255 7.044739603996277 10.651761293411255 7.044739603996277 10.651761293411255 C 7.044739603996277 10.651761293411255 7.044739603996277 7.984606623649597 7.044739603996277 7.984606623649597 C 7.044739603996277 7.984606623649597 8.999876737594604 7.984606623649597 8.999876737594604 7.984606623649597 C 8.999876737594604 7.984606623649597 8.999876737594604 6.944608390331268 8.999876737594604 6.944608390331268 C 8.999876737594604 5.1536038517951965 10.345585584640503 3.539348840713501 11.999876022338867 3.539348840713501 C 11.999876022338867 3.539348840713501 14.156120419502258 3.539348840713501 14.156120419502258 3.539348840713501 C 14.156120419502258 3.539348840713501 14.156120419502258 6.2066468596458435 14.156120419502258 6.2066468596458435 C 14.156120419502258 6.2066468596458435 11.999876022338867 6.2066468596458435 11.999876022338867 6.2066468596458435 C 11.763595342636108 6.2066468596458435 11.48921012878418 6.492915153503418 11.48921012878418 6.922245919704437 C 11.48921012878418 6.922245919704437 11.48921012878418 7.984606623649597 11.48921012878418 7.984606623649597 C 11.48921012878418 7.984606623649597 14.156120419502258 7.984606623649597 14.156120419502258 7.984606623649597 C 14.156120419502258 7.984606623649597 14.156120419502258 10.651761293411255 14.156120419502258 10.651761293411255 C 14.156120419502258 10.651761293411255 11.48921012878418 10.651761293411255 11.48921012878418 10.651761293411255 C 11.48921012878418 10.651761293411255 11.48921012878418 16.694645583629608 11.48921012878418 16.694645583629608 C 11.48921012878418 16.694645583629608 14.333778738975525 16.694645583629608 14.333778738975525 16.694645583629608 C 15.734283208847046 16.694645583629608 16.99979341030121 15.42987585067749 16.99979341030121 14.028781056404114 C 16.99979341030121 14.028781056404114 16.99979341030121 3.3614525198936462 16.99979341030121 3.3614525198936462 Z"/></g></svg>