<svg version="1.1" xmlns="http://www.w3.org/2000/svg" xmlns:xlink="http://www.w3.org/1999/xlink" width="17" height="17"><defs/><g><path fill="rgb(175,165,163)" stroke="none" paint-order="stroke fill markers" fill-rule="evenodd" d=" M 15.818302392959595 0.694727897644043 C 15.818302392959595 0.694727897644043 2.1834741830825806 0.694727897644043 2.1834741830825806 0.694727897644043 C 1.5300791263580322 0.694727897644043 0.9998724460601807 1.2093514204025269 0.9998724460601807 1.841234564781189 C 0.9998724460601807 1.841234564781189 0.9998724460601807 15.548138916492462 0.9998724460601807 15.548138916492462 C 0.9998724460601807 16.18202894926071 1.5300791263580322 16.694645583629608 2.1834741830825806 16.694645583629608 C 2.1834741830825806 16.694645583629608 15.818302392959595 16.694645583629608 15.818302392959595 16.694645583629608 C 16.472593069076538 16.694645583629608 16.999868631362915 16.18202894926071 16.999868631362915 15.548138916492462 C 16.999868631362915 15.548138916492462 16.999868631362915 1.841234564781189 16.999868631362915 1.841234564781189 C 16.999868631362915 1.2093514204025269 16.472593069076538 0.694727897644043 15.818302392959595 0.694727897644043 Z M 5.8514426946640015 14.08913105726242 C 5.8514426946640015 14.08913105726242 3.4335145950317383 14.08913105726242 3.4335145950317383 14.08913105726242 C 3.4335145950317383 14.08913105726242 3.4335145950317383 6.863616108894348 3.4335145950317383 6.863616108894348 C 3.4335145950317383 6.863616108894348 5.8514426946640015 6.863616108894348 5.8514426946640015 6.863616108894348 C 5.8514426946640015 6.863616108894348 5.8514426946640015 14.08913105726242 5.8514426946640015 14.08913105726242 Z M 4.642437934875488 5.877373814582825 C 4.642437934875488 5.877373814582825 4.62688672542572 5.877373814582825 4.62688672542572 5.877373814582825 C 3.8162697553634644 5.877373814582825 3.2898898124694824 5.322612524032593 3.2898898124694824 4.62937593460083 C 3.2898898124694824 3.921661078929901 3.8319023847579956 3.381091356277466 4.6580705642700195 3.381091356277466 C 5.485215783119202 3.381091356277466 5.994009017944336 3.921661078929901 6.009641647338867 4.62937593460083 C 6.009641647338867 5.322612524032593 5.485215783119202 5.877373814582825 4.642437934875488 5.877373814582825 Z M 14.56630790233612 14.08913105726242 C 14.56630790233612 14.08913105726242 12.148298382759094 14.08913105726242 12.148298382759094 14.08913105726242 C 12.148298382759094 14.08913105726242 12.148298382759094 10.224007368087769 12.148298382759094 10.224007368087769 C 12.148298382759094 9.251383244991302 11.798681139945984 8.589253425598145 10.924638032913208 8.589253425598145 C 10.255691766738892 8.589253425598145 9.859176635742188 9.036216139793396 9.685263633728027 9.467697143554688 C 9.62086045742035 9.622084200382233 9.603355169296265 9.837538003921509 9.603355169296265 10.053995251655579 C 9.603355169296265 10.053995251655579 9.603355169296265 14.08913105726242 9.603355169296265 14.08913105726242 C 9.603355169296265 14.08913105726242 7.1894166469573975 14.08913105726242 7.1894166469573975 14.08913105726242 C 7.1894166469573975 14.08913105726242 7.219460606575012 7.542374432086945 7.1894166469573975 6.863616108894348 C 7.1894166469573975 6.863616108894348 9.603355169296265 6.863616108894348 9.603355169296265 6.863616108894348 C 9.603355169296265 6.863616108894348 9.603355169296265 7.888849377632141 9.603355169296265 7.888849377632141 C 9.924556851387024 7.396731674671173 10.497916102409363 6.694750785827637 11.781990051269531 6.694750785827637 C 13.372772932052612 6.694750785827637 14.56630790233612 7.72715151309967 14.56630790233612 9.946770071983337 C 14.56630790233612 9.946770071983337 14.56630790233612 14.08913105726242 14.56630790233612 14.08913105726242 Z M 9.58967661857605 7.911498546600342 C 9.593666195869446 7.9047611355781555 9.599447011947632 7.896876931190491 9.603355169296265 7.888849377632141 C 9.603355169296265 7.888849377632141 9.603355169296265 7.911498546600342 9.603355169296265 7.911498546600342 C 9.603355169296265 7.911498546600342 9.58967661857605 7.911498546600342 9.58967661857605 7.911498546600342 Z"/></g></svg>