<svg version="1.1" xmlns="http://www.w3.org/2000/svg" xmlns:xlink="http://www.w3.org/1999/xlink" width="17" height="11"><defs/><g><path fill="rgb(175,165,163)" stroke="none" paint-order="stroke fill markers" fill-rule="evenodd" d=" M 16.140469431877136 0.7232658267021179 C 16.140469431877136 0.7232658267021179 15.999857187271118 0.6944526433944702 15.999857187271118 0.6944526433944702 C 15.999857187271118 0.6944526433944702 1.9997791051864624 0.6944526433944702 1.9997791051864624 0.6944526433944702 C 1.9997791051864624 0.6944526433944702 1.913962483406067 0.712371289730072 1.913962483406067 0.712371289730072 C 1.913962483406067 0.712371289730072 9.001812934875488 7.02604216337204 9.001812934875488 7.02604216337204 C 9.001812934875488 7.02604216337204 16.140469431877136 0.7232658267021179 16.140469431877136 0.7232658267021179 Z M 16.9313827753067 1.359736144542694 C 16.9313827753067 1.359736144542694 16.97046434879303 1.4652411341667175 11.890511155128479 5.810011148452759 C 11.890511155128479 5.810011148452759 16.97046434879303 1.4652411341667175 16.866979598999023 10.164385557174683 C 16.94514274597168 10.022326529026031 16.999775528907776 9.867796123027802 16.999775528907776 9.694630324840546 C 16.999775528907776 9.694630324840546 16.999775528907776 9.867796123027802 16.999775528907776 1.6945998072624207 C 16.999775528907776 1.5756199955940247 16.97046434879303 1.4652411341667175 16.9313827753067 1.359736144542694 Z M 1.0779424905776978 1.307987093925476 C 1.0291719436645508 1.426966905593872 0.9998607635498047 1.5574146509170532 0.9998607635498047 1.6945998072624207 C 0.9998607635498047 1.6945998072624207 0.9998607635498047 1.5574146509170532 0.9998607635498047 9.694630324840546 C 0.9998607635498047 9.840273082256317 1.0351155996322632 9.97674149274826 1.0917024612426758 10.102172017097473 C 1.0917024612426758 10.102172017097473 1.0351155996322632 9.97674149274826 6.115068793296814 5.7948161363601685 C 6.115068793296814 5.7948161363601685 1.0779424905776978 1.307987093925476 1.0779424905776978 1.307987093925476 Z M 8.997823357582092 8.363203227519989 C 8.997823357582092 8.363203227519989 6.869017481803894 6.465833604335785 6.869017481803894 6.465833604335785 C 6.869017481803894 6.465833604335785 1.9471818208694458 10.68388295173645 1.9471818208694458 10.68388295173645 C 1.9471818208694458 10.68388295173645 1.9997791051864624 10.694777488708496 1.9997791051864624 10.694777488708496 C 1.9997791051864624 10.694777488708496 15.954994797706604 10.694777488708496 15.954994797706604 10.694777488708496 C 15.954994797706604 10.694777488708496 11.134608387947083 6.4770148396492 11.134608387947083 6.4770148396492 C 11.134608387947083 6.4770148396492 8.997823357582092 8.363203227519989 8.997823357582092 8.363203227519989 Z"/></g></svg>