<svg version="1.1" xmlns="http://www.w3.org/2000/svg" xmlns:xlink="http://www.w3.org/1999/xlink" width="17" height="12"><defs/><g><path fill="rgb(175,165,163)" stroke="none" paint-order="stroke fill markers" fill-rule="evenodd" d=" M 15.187373757362366 5.276461720466614 C 16.083807349205017 5.203640341758728 16.694212675094604 4.804556250572205 16.929516315460205 4.261836290359497 C 16.60538351535797 4.456791162490845 15.599440097808838 4.6709548234939575 15.042771935462952 4.4662522077560425 C 15.015496253967285 4.340248286724091 14.986185073852539 4.217971444129944 14.955978274345398 4.109026074409485 C 14.531129002571106 2.5863711833953857 13.08291244506836 1.3621692657470703 11.563372015953064 1.5113957524299622 C 11.685339093208313 1.4633737802505493 11.8103187084198 1.4152084589004517 11.93537974357605 1.375500738620758 C 12.103267669677734 1.318304419517517 13.083889484405518 1.16148042678833 12.929598689079285 0.821599543094635 C 12.798593997955322 0.5248667597770691 11.600499510765076 1.0466577410697937 11.374884843826294 1.115895390510559 C 11.671660542488098 1.0068066716194153 12.16579818725586 0.819305956363678 12.218639731407166 0.4831521511077881 C 11.760489702224731 0.544218897819519 11.313331365585327 0.7545121312141418 10.966645240783691 1.0637162923812866 C 11.091706275939941 0.9304015636444092 11.187293291091919 0.7697071433067322 11.206834077835083 0.5979748368263245 C 9.98911738395691 1.3581554889678955 9.27815842628479 2.89199161529541 8.702926516532898 4.380386054515839 C 8.250882983207703 3.95048189163208 7.850459694862366 3.6141847372055054 7.4920490980148315 3.4271140694618225 C 6.483174562454224 2.898298978805542 5.277182340621948 2.347551465034485 3.385552763938904 1.6600488424301147 C 3.32790744304657 2.2714330554008484 3.6941343545913696 3.0870898365974426 4.753814935684204 3.627659559249878 C 4.525269150733948 3.5969828367233276 4.105305075645447 3.6642135977745056 3.7703434228897095 3.7421955466270447 C 3.9061518907546997 4.445179879665375 4.353391647338867 5.022160291671753 5.562314987182617 5.301117777824402 C 5.009636402130127 5.337528467178345 4.724503755569458 5.459518611431122 4.464692711830139 5.725144624710083 C 4.716606020927429 6.2122451066970825 5.331000924110413 6.787218630313873 6.435299634933472 6.6688122153282166 C 5.207893967628479 7.186732769012451 5.935299754142761 8.145308673381805 6.933508276939392 8.00253289937973 C 5.2302844524383545 9.723583042621613 2.5428563356399536 9.597292423248291 0.9997855424880981 8.157206654548645 C 5.027060270309448 13.52663654088974 13.784996628761292 11.333824276924133 15.089669823646545 6.160926103591919 C 16.068174719810486 6.170243799686432 16.64348804950714 5.828642725944519 16.999781727790833 5.455648183822632 C 16.435378670692444 5.549541890621185 15.618980884552002 5.451777756214142 15.187373757362366 5.276461720466614 Z"/></g></svg>